<svg xmlns="http://www.w3.org/2000/svg" width="130" height="42" fill="none">
    <g clip-path="url(#a)">
        <path fill="#E9E8EE" fill-rule="evenodd" d="M123.494 4.32c.708 0 1.319 0 1.866.08a6.88 6.88 0 0 1 1.4.29 4.31 4.31 0 0 1 2.236 1.506c.521.74.787 1.63.756 2.533.026.288.026.578 0 .866a3.706 3.706 0 0 1-2.108 2.74 7.822 7.822 0 0 1-3.539.722 12.4 12.4 0 0 1-1.609-.096v6.412H119.6V4.833a.434.434 0 0 1 .194-.384.549.549 0 0 1 .338-.128h3.362ZM122.4 6.133v5.274h.917a4 4 0 0 0 2.59-.705 2.595 2.595 0 0 0 .804-2.1 2.525 2.525 0 0 0-.257-1.187 1.842 1.842 0 0 0-.74-.753 3.529 3.529 0 0 0-1.094-.385 7.231 7.231 0 0 0-1.512-.144h-.708Zm-13.144-.32a4.604 4.604 0 0 0-1.979.416 4.136 4.136 0 0 0-1.512 1.25 5.552 5.552 0 0 0-.869 1.716 7.317 7.317 0 0 0-.289 2.116 8.617 8.617 0 0 0 .144 1.603c.096.5.241.988.435 1.459.204.495.469.963.788 1.394.306.403.669.76 1.078 1.058.385.299.821.527 1.287.674.468.15.957.225 1.448.224a4.214 4.214 0 0 0 1.963-.449 3.72 3.72 0 0 0 1.432-1.266 5.697 5.697 0 0 0 .788-1.732 7.494 7.494 0 0 0 .274-2.148 8.37 8.37 0 0 0-.338-2.436 6.434 6.434 0 0 0-1.014-2.004 4.646 4.646 0 0 0-1.609-1.427 4.39 4.39 0 0 0-2.027-.449Zm.257-1.796a8.447 8.447 0 0 1 3.122.545 6.885 6.885 0 0 1 2.493 1.603 6.907 6.907 0 0 1 1.609 2.453c.362.974.542 2.006.531 3.046a8.401 8.401 0 0 1-.531 3.03 7.413 7.413 0 0 1-1.609 2.484 6.965 6.965 0 0 1-2.51 1.7 8.068 8.068 0 0 1-3.105.576 8.611 8.611 0 0 1-3.218-.56 7.46 7.46 0 0 1-4.199-4.073 8.027 8.027 0 0 1-.547-3.03 8.11 8.11 0 0 1 .547-3.045 7.04 7.04 0 0 1 1.61-2.5 7.174 7.174 0 0 1 2.542-1.604A8.757 8.757 0 0 1 109.513 4v.016Zm-19.965.32a.515.515 0 0 0-.386.145.477.477 0 0 0-.16.385v.945a.52.52 0 0 0 .224.385.615.615 0 0 0 .306.096h4.617v13.033h2.783V6.356h4.634a.517.517 0 0 0 .418-.208.508.508 0 0 0 .112-.337V4.85a.555.555 0 0 0-.16-.385.598.598 0 0 0-.402-.144l-11.986.016ZM85.22 15.783a3.968 3.968 0 0 0 1.97 1.867 3.988 3.988 0 0 0 2.712.17 2.724 2.724 0 0 1-.354.64 3.478 3.478 0 0 1-3.54.978 3.863 3.863 0 0 1-1.72-.801 12.435 12.435 0 0 1-1.9-2.164c-.401-.561-.916-1.491-1.447-2.293a4.813 4.813 0 0 0-1.271-1.41l-.402-.209-.386-.112h-.419v7.037h-2.88V4.85a.512.512 0 0 1 .515-.513h1.867a.517.517 0 0 1 .514.529v5.755h.66c.152-.072.298-.158.434-.257.143-.059.278-.134.403-.224l.353-.289c.111-.116.213-.239.306-.369.097-.128.21-.288.306-.448l.241-.513 1.062-2.116c.118-.205.246-.403.386-.594.113-.176.21-.352.322-.497l.354-.416c.12-.121.25-.234.386-.337.126-.102.26-.193.402-.272l.418-.08.451-.113h1.11l.257.112.242.097.225.112.209.144.177.144c.103.103.166.24.177.385a.734.734 0 0 1-.08.32l-.29.401c-.275.385-.57.754-.885 1.107-.563-.24-1.094-.481-1.609-.273-.182.092-.337.23-.45.4-.08.129-.15.263-.209.402l-.531 1.122-.274.497c-.096.176-.177.336-.273.48-.097.16-.193.321-.306.481a3.032 3.032 0 0 1-.322.433 7.43 7.43 0 0 1-.675.722h.08c.157.073.308.159.45.256.153.096.298.204.435.32.43.384.808.82 1.126 1.3.58.945 1.078 1.923 1.673 2.724Zm-31.388-.77h.258a5.58 5.58 0 0 0 .692-.192c.23-.083.451-.19.66-.32.189-.11.367-.239.53-.385a3.01 3.01 0 0 0 .772-1.138c.08-.246.14-.498.177-.753.026-.32.026-.642 0-.962a5.304 5.304 0 0 0-.273-1.812 3.437 3.437 0 0 0-.338-.64 2.707 2.707 0 0 0-.434-.514 5.52 5.52 0 0 0-.435-.417 4.254 4.254 0 0 0-.611-.288 4.565 4.565 0 0 0-.74-.177h-.258v7.599Zm0 4.41V16.76l.82-.096c.403-.075.8-.172 1.191-.289.417-.101.821-.246 1.207-.432.347-.169.676-.373.981-.61.296-.232.565-.496.805-.785A5.273 5.273 0 0 0 59.85 12.4c.085-.444.128-.895.128-1.347 0-.44-.043-.881-.129-1.314a4.803 4.803 0 0 0-.402-1.138 5.626 5.626 0 0 0-.611-.946 4.658 4.658 0 0 0-.82-.77 4.83 4.83 0 0 0-.966-.577 6.221 6.221 0 0 0-1.126-.4c-.483-.097-.869-.097-1.271-.24l-.82-.081V4.85a.496.496 0 0 0 0-.289.465.465 0 0 0-.435-.24h-1.802a.5.5 0 0 0-.434.224.56.56 0 0 0-.08.289v.753l-.853.112a9.194 9.194 0 0 0-1.223.273 8.38 8.38 0 0 0-1.11.433 6.434 6.434 0 0 0-.95.609c-.304.233-.58.502-.82.801-.235.306-.44.633-.611.978-.184.37-.314.764-.386 1.17A7.093 7.093 0 0 0 45 11.31c0 .441.044.881.129 1.314.085.395.22.777.402 1.138.16.337.366.65.611.93.232.292.502.551.805.77.301.229.624.427.965.593.357.162.729.29 1.11.384.39.114.788.195 1.19.241.277.05.556.082.837.096v2.645h2.783Zm-2.75-12.008a4.633 4.633 0 0 0-.982.24 3.32 3.32 0 0 0-.595.257c-.188.106-.36.236-.515.385a4.26 4.26 0 0 0-.418.497 2.651 2.651 0 0 0-.322.641 3.74 3.74 0 0 0-.21.786 6.115 6.115 0 0 0 0 .978 6.2 6.2 0 0 0 0 .993c.047.275.122.544.226.802.074.234.183.455.322.657.123.184.269.35.434.497.16.142.333.271.515.385.187.113.387.205.595.273l.692.192h.29l-.033-7.583Zm11.132 10.853-.53 1.218h-1.995l.225-.529 5.18-12.311-.611-1.7a2.062 2.062 0 0 1 1.737-.432 2.979 2.979 0 0 1 1.947 1.811c.804 1.603 1.094 2.822 1.77 4.537l3.137 8.015.225.561h-2.816l-.627-1.603a8.808 8.808 0 0 1-.37-.865l-.547-1.331-.627-1.651h-4.296l-.45 1.042-1.062 2.549-.161.352a1.07 1.07 0 0 1-.129.273v.064Zm3.99-9.618 1.416 3.575h-2.928l1.512-3.575ZM111.99 36.766l-.547 1.218h-1.979l.209-.529 5.294-12.247-.676-1.763a2.005 2.005 0 0 1 1.721-.433 2.975 2.975 0 0 1 1.947 1.811c.804 1.603 1.094 2.821 1.769 4.537l3.444 8.576h-2.929l-.627-1.523a6.024 6.024 0 0 1-.354-.866l-1.239-3.013h-4.247l-.435 1.042-1.077 2.548-.161.353c-.032.093-.07.184-.113.273m3.974-9.619 1.415 3.72h-2.927l1.512-3.72ZM54.91 36.75l-.531 1.218h-1.995l5.437-12.776-.61-1.747a2.063 2.063 0 0 1 1.737-.433 2.978 2.978 0 0 1 1.946 1.811c.805 1.603 1.094 2.821 1.77 4.537l3.137 8.015.225.56H63.18l-.628-1.522a8.773 8.773 0 0 1-.37-.866l-.547-1.33-.675-1.683H56.71l-.45 1.042-1.062 2.548-.16.353c-.03.102-.073.2-.13.289v-.016Zm3.99-9.619 1.367 3.688H57.37l1.528-3.688ZM78.204 37.92h-2.3V24.71h-2.671v1.059c-.08 1.395-.225 3.414-.531 5.386a14.39 14.39 0 0 1-1.416 4.97 3.593 3.593 0 0 1-2.236 1.747c-1.705.449-2.639-1.299-2.783-2.757a2.176 2.176 0 0 0 2.831 0 11.448 11.448 0 0 0 1.609-5.242c.273-2.1.354-4.2.386-5.082v-1.346a.448.448 0 0 1 .129-.321.515.515 0 0 1 .29-.176h6.58a.517.517 0 0 1 .53.529v14.427l-.418.016Zm6.709-1.844h1.094c.3.018.6.018.9 0 .252-.026.499-.074.74-.144l.596-.224c.158-.089.31-.19.45-.305a1.87 1.87 0 0 0 .339-.368c.099-.134.18-.28.241-.433.064-.166.113-.338.145-.513a3.538 3.538 0 0 0 0-.593c.024-.24.024-.482 0-.722a3.11 3.11 0 0 0-.21-.577 2.363 2.363 0 0 0-.788-.866 4.12 4.12 0 0 0-1.24-.512 3.75 3.75 0 0 0-.739-.129 7.127 7.127 0 0 0-.837 0h-.547l-.144 5.386Zm-2.751-12.631c0-.097.028-.192.08-.273a.465.465 0 0 1 .418-.24H84.4a.482.482 0 0 1 .435.24.502.502 0 0 1 .08.288v5.29h2.236c.236-.017.472-.017.708 0l.691.113c.221.036.437.095.644.176.208.063.412.137.612.224.212.097.416.21.611.337.2.123.394.257.58.4.467.37.841.841 1.093 1.38.123.266.214.546.274.833.063.284.096.575.096.866.008.106.008.214 0 .32.008.112.008.225 0 .337.01.112.01.225 0 .337-.019.119-.046.237-.08.352l-.096.337a3.07 3.07 0 0 1-.13.337l-.16.32-.177.289a4.479 4.479 0 0 1-.37.433 2.582 2.582 0 0 1-.45.384 4.654 4.654 0 0 1-.548.369 6.283 6.283 0 0 1-.66.288 4.663 4.663 0 0 1-.755.241l-.853.192-.966.113-1.206.144h-3.845V23.445Zm20.914 10.179h.258c.235-.05.465-.114.692-.193a4.26 4.26 0 0 0 .611-.272 3.18 3.18 0 0 0 .53-.385 2.59 2.59 0 0 0 .435-.497c.136-.192.244-.403.322-.625a4.05 4.05 0 0 0 .225-.785 6.14 6.14 0 0 0 0-.978 4.988 4.988 0 0 0-.289-1.812 2.737 2.737 0 0 0-.757-1.138 3.15 3.15 0 0 0-.547-.4 3.054 3.054 0 0 0-.611-.29 5.098 5.098 0 0 0-.708-.192h-.241l.08 7.567Zm0 4.424v-2.677l.821-.096c.401-.07.799-.16 1.19-.273.381-.12.753-.27 1.11-.448.348-.17.677-.373.982-.61.295-.232.565-.496.804-.785a5.265 5.265 0 0 0 1.013-2.148 7.07 7.07 0 0 0 .114-1.347 5.805 5.805 0 0 0-.129-1.314 4.165 4.165 0 0 0-.386-1.138 5.65 5.65 0 0 0-.612-.946 4.664 4.664 0 0 0-.82-.77 5.705 5.705 0 0 0-.966-.577 8.497 8.497 0 0 0-1.125-.4 15.844 15.844 0 0 0-1.191-.241h-.805v-.833a.49.49 0 0 0 0-.29.485.485 0 0 0-.434-.24h-1.786a.47.47 0 0 0-.418.24.504.504 0 0 0 0 .273v.754l-.836.112a8.63 8.63 0 0 0-1.191.273 8.439 8.439 0 0 0-1.143.48 5.248 5.248 0 0 0-.948.594c-.305.233-.58.502-.82.801a6.638 6.638 0 0 0-.612.978 4.53 4.53 0 0 0-.387 1.17 7.149 7.149 0 0 0-.128 1.347c0 .441.044.881.128 1.314.08.394.21.777.387 1.138a4.826 4.826 0 0 0 1.432 1.7c.296.222.614.415.948.577.36.16.731.294 1.11.4.387.1.78.175 1.175.225.277.049.556.08.837.096v2.661h2.686Zm-2.783-12.087c-.33.046-.653.127-.965.24-.21.065-.41.157-.596.273a2.417 2.417 0 0 0-.53.369 3.108 3.108 0 0 0-.419.48 3.429 3.429 0 0 0-.547 1.428 6.234 6.234 0 0 0 0 .977c-.026.331-.026.663 0 .994a3.429 3.429 0 0 0 .547 1.443c.127.185.273.357.435.513a3.417 3.417 0 0 0 1.11.673c.225.081.456.146.692.193h.273V25.96Z" clip-rule="evenodd"/>
        <path fill="url(#b)" stroke="#B8BCC6" stroke-width=".867" d="m34.75 35.15.306.307-.305-.307a19.924 19.924 0 0 1-10.19 5.428 19.97 19.97 0 0 1-11.5-1.129 19.886 19.886 0 0 1-8.932-7.304A19.777 19.777 0 0 1 .775 21.13 19.792 19.792 0 0 1 6.604 7.109 19.94 19.94 0 0 1 20.677 1.3c3.937 0 7.785 1.163 11.058 3.342a19.845 19.845 0 0 1 7.33 8.899 19.763 19.763 0 0 1 1.132 11.456A19.807 19.807 0 0 1 34.75 35.15Z"/>
        <path fill="#E9E8EE" fill-rule="evenodd" d="M11.41 15.814a4.69 4.69 0 0 1 3.072-.774 7.21 7.21 0 0 1 2.269.565 34.958 34.958 0 0 1 7.915 5.223 43.05 43.05 0 0 0 5.904 4.337 9.79 9.79 0 0 0 1.98.854c.572.174 1.172.24 1.769.194.165.023.333.023.499 0l.579-.097c-2.365 2.015-3.99 2.048-6.645.58a40.23 40.23 0 0 1-5.1-3.595c-.917-.725-1.818-1.45-2.735-2.128a37.734 37.734 0 0 0-5.614-3.514 35.214 35.214 0 0 0-3.894-1.613" clip-rule="evenodd"/>
        <path fill="#E9E8EE" fill-rule="evenodd" d="M25.276 20.264a41.412 41.412 0 0 0 3.797-5.965 21.2 21.2 0 0 0 .563-1.048c.338-.677.611-.886 0-.854h-.467c-.418 0-.386.113-.563.516-.402.967-.691 1.725-1.094 2.58a21.446 21.446 0 0 1-3.877 5.997 15.007 15.007 0 0 1-7.03 4.594 7.85 7.85 0 0 1-3.572.097 5.835 5.835 0 0 1-3.105-1.612c-1.432-1.516-1.303-3.789-.37-6.449a.795.795 0 0 0 0-.177c.097-.226.499-1.177 0-.63a5.787 5.787 0 0 0-.418.469A7.826 7.826 0 0 0 7.885 20.2a6.461 6.461 0 0 0 0 4.562c.23.537.57 1.02.997 1.419a5.143 5.143 0 0 0 2.269 1.193l.547.113a9.169 9.169 0 0 0 3.941-.37c1.347-.39 2.631-.971 3.813-1.726.402-.242.788-.516 1.207-.822a24.442 24.442 0 0 0 4.617-4.418" clip-rule="evenodd"/>
    </g>
    <defs>
        <linearGradient id="b" x1="20.677" x2="20.677" y1=".867" y2="41.392" gradientUnits="userSpaceOnUse">
            <stop stop-color="#8D93A3"/>
            <stop offset="1" stop-color="#7A8194"/>
        </linearGradient>
        <clipPath id="a">
            <path fill="#fff" d="M0 0h130v42H0z"/>
        </clipPath>
    </defs>
</svg>
