<svg xmlns="http://www.w3.org/2000/svg" width="111" height="57" fill="none">
    <path fill="url(#a)" d="M53 27.365c0 .598-.19 1.118-.57 1.543a1.202 1.202 0 0 1-.23.212c-.742.637-1.96.945-3.615.868l-4.339-.231-23.121-1.274c-1.808-.096-3.197-.733-4.073-1.736a6.102 6.102 0 0 1-.513-.714c-.457-.81-.628-1.775-.495-2.836a.97.97 0 0 1 .057-.308c0-.116.019-.232.076-.348.114-.56.324-1.119.61-1.697l8.886-17.576c1.998-3.975 5.9-4.38 8.659-.907l17.24 21.743c.172.212.305.405.438.598.19.27.343.52.457.772.095.173.171.347.229.501.076.174.133.348.17.502.039.154.077.309.096.463.019.135.038.29.038.425Z"/>
    <path fill="url(#b)" d="M94.461 26.031c-.152.251-.323.483-.513.715-.876 1.003-2.265 1.64-4.073 1.737l-23.121 1.274-4.339.231c-1.655.078-2.873-.231-3.616-.868a1.203 1.203 0 0 1-.228-.213c-.38-.424-.571-.946-.571-1.544 0-.135.019-.29.038-.424.02-.155.057-.31.095-.464.038-.154.095-.328.171-.502.058-.154.134-.328.229-.502.114-.25.266-.502.457-.771.133-.194.266-.387.437-.599L76.668 2.347C78.21.397 80.113-.317 81.844.127c1.352.328 2.607 1.37 3.483 3.127l.419.83 8.468 16.755c.285.579.495 1.139.609 1.698a.767.767 0 0 1 .076.348.974.974 0 0 1 .057.309c.133 1.062-.038 2.027-.495 2.837Z"/>
    <path fill="#E9E8EE" d="M111 32.93v17.14a7.02 7.02 0 0 1-.268 1.9 6.952 6.952 0 0 1-5.813 4.972 6.04 6.04 0 0 1-.844.058H6.925c-.287 0-.575-.02-.843-.058C2.667 56.52 0 53.583 0 50.07V32.93C0 29.128 3.108 26 6.926 26h97.149c3.817 0 6.925 3.129 6.925 6.93Z"/>
    <path fill="#00ADBC" d="M66 26H44v31h22V26Z"/>
    <defs>
        <linearGradient id="a" x1="34.5" x2="34.5" y1="0" y2="30" gradientUnits="userSpaceOnUse">
            <stop stop-color="#30BDC9"/>
            <stop offset="1" stop-color="#00ADBC"/>
        </linearGradient>
        <linearGradient id="b" x1="76.5" x2="76.5" y1="0" y2="30" gradientUnits="userSpaceOnUse">
            <stop stop-color="#30BDC9"/>
            <stop offset="1" stop-color="#00ADBC"/>
        </linearGradient>
    </defs>
</svg>
