<svg xmlns="http://www.w3.org/2000/svg" width="40" height="41" fill="none">
    <g fill="#3A4051" clip-path="url(#a)">
        <path d="M33.815 6.847a19.415 19.415 0 1 0 5.69 13.74 19.337 19.337 0 0 0-5.69-13.74ZM20.09.5a20.072 20.072 0 1 1-.036 40.143A20.072 20.072 0 0 1 20.09.5Z"/>
        <path fill-rule="evenodd" d="M11.086 15.32a4.566 4.566 0 0 1 2.986-.751c.76.061 1.504.246 2.204.547a33.974 33.974 0 0 1 7.69 5.065 41.818 41.818 0 0 0 5.738 4.205 9.514 9.514 0 0 0 1.923.829 4.69 4.69 0 0 0 1.72.187c.16.022.323.022.484 0l.563-.094c-2.298 1.954-3.877 1.986-6.457.563a39.079 39.079 0 0 1-4.955-3.486c-.891-.703-1.766-1.407-2.657-2.063a36.68 36.68 0 0 0-5.456-3.408 34.251 34.251 0 0 0-3.783-1.563" clip-rule="evenodd"/>
        <path fill-rule="evenodd" d="M24.557 19.634a40.143 40.143 0 0 0 3.689-5.784c.281-.5.39-.704.547-1.016.328-.657.594-.86 0-.829h-.453c-.407 0-.376.11-.548.5-.39.938-.672 1.673-1.063 2.502a20.789 20.789 0 0 1-3.767 5.815 14.585 14.585 0 0 1-6.831 4.455 7.645 7.645 0 0 1-3.47.094 5.674 5.674 0 0 1-3.017-1.563c-1.392-1.47-1.267-3.674-.36-6.253a.77.77 0 0 0 0-.172c.094-.219.485-1.141 0-.61-.144.144-.28.295-.407.454a7.581 7.581 0 0 0-1.219 2.344 6.253 6.253 0 0 0 0 4.424c.225.52.555.99.97 1.376a5.002 5.002 0 0 0 2.204 1.157l.531.109a8.924 8.924 0 0 0 3.83-.36 14.257 14.257 0 0 0 3.705-1.672c.39-.235.766-.5 1.172-.797a23.727 23.727 0 0 0 4.487-4.284" clip-rule="evenodd"/>
    </g>
    <defs>
        <clipPath id="a">
            <path fill="#fff" d="M0 .5h40v40H0z"/>
        </clipPath>
    </defs>
</svg>
