<svg xmlns="http://www.w3.org/2000/svg" width="933.333" height="933.333" version="1.0" viewBox="0 0 700 700">
    <path d="M319.5 1.1C183.1 13.9 68.1 102.1 21 230.1c-8.5 23-15 50-18.7 77.5-2.4 18.2-2.4 66.6 0 84.9 10 74.2 39.3 137.9 88.9 193.3 42.5 47.3 102.8 84.3 165.3 101.6 29.2 8 53.4 11.5 85 12.3 57.8 1.5 110-9.9 162-35.2C560.1 637 606.8 596 641.9 543c30.1-45.4 48.3-94.5 55.8-150.5 2.4-18.4 2.4-66.6 0-85-12.7-94.8-59.5-176.9-133.4-234.3C511.1 31.8 448 7.3 378.5 1c-12.8-1.2-46-1.1-59 .1zM396 14.9c29.9 4.5 54.5 10.9 80 21.1 66.1 26.4 122.9 73.9 161.5 135 8.6 13.7 24.2 45.3 29.8 60.5 27.1 73.3 28.3 153.4 3.4 227-12.8 37.7-31.5 72-56.6 103.5-9 11.3-32.4 35.4-43.6 45-49.3 41.9-107 68.1-172 78-17.8 2.8-59.2 3.8-78.2 2.1C200.2 675.8 96.7 603.9 45 495.6 24.4 452.5 13.8 408.1 12.3 359 9 247.2 62.3 140 153.5 74.9c48.7-34.7 105.3-55.8 166-61.9 15.6-1.5 61-.4 76.5 1.9z"/>
    <path d="M489.4 201c-1.4.6-4.1 5.8-9.4 18.6-22 53.5-39.1 84.8-61.7 113.1l-4.9 6.1-12.5-10C377.5 309.9 351 291.5 326 277c-19.9-11.6-43.8-23.4-53-26.3-20.9-6.6-42.9-7.4-58.5-2.3-9.6 3.1-20.9 8.8-20.4 10.1.2.6 7.2 3.5 15.4 6.6 42.4 16 77.2 34.2 117.5 61.3 12.4 8.3 48.3 34.9 55.5 41l3 2.6-5 4.6c-26.2 23.8-54.8 41.2-87.3 53-25.7 9.4-51.6 10.8-78.1 4.3-30.8-7.6-54.6-27.7-61.5-51.9-6.1-21.6-3-48 10.5-89.5 2.1-6.4 2.4-9.5 1-9.5-1.7 0-11.2 11-16.6 19.4-6.5 10-10.4 18.2-15.2 32-5.4 15.6-6.6 22.6-6.6 38.1-.2 28.3 7.2 47.8 23.8 63.3 16.7 15.6 38.4 23.2 66.8 23.2 22.7 0 45.4-4.9 71.7-15.5 29.7-11.9 63.3-33.8 93.1-60.6 4.2-3.8 7.9-6.9 8.3-6.9.3 0 8.6 6.4 18.3 14.1 44.7 35.6 86 61.1 110.8 68.5 7.6 2.3 10.9 2.7 21 2.8 10.5 0 13-.3 20-2.7 9.1-3.2 21.3-9.9 30-16.6 3.2-2.5 6.5-5.1 7.2-5.6.9-.7-5-1-18.4-1h-19.8l-12.5-4.3c-16.9-5.9-28.4-12-51.2-27.2-26.8-17.8-51.5-36.3-70.5-52.8l-6.3-5.4 4.1-5.2c2.3-2.8 4.5-5.1 5-5.1 1 0 10.5-12.8 22.4-30 15.8-23 29.9-46.7 49.9-84.3 10.3-19.3 10.3-19.2-1.3-19.1-4.2 0-8.5.4-9.7.9z"/>
</svg>
