<svg xmlns="http://www.w3.org/2000/svg" xmlns:xlink="http://www.w3.org/1999/xlink"><symbol fill="currentColor" viewBox="0 0 16 16" id="arrow-left"><path fill-rule="evenodd" clip-rule="evenodd" d="M7.805 3.529c.26.26.26.682 0 .942L4.943 7.333h7.723a.667.667 0 1 1 0 1.334H4.943l2.862 2.862a.667.667 0 1 1-.943.942l-4-4a.667.667 0 0 1 0-.942l4-4c.26-.26.682-.26.943 0Z"/></symbol><symbol fill="currentColor" viewBox="0 0 16 16" id="arrow-right"><path fill-rule="evenodd" clip-rule="evenodd" d="M8.194 12.471a.667.667 0 0 1 0-.942l2.862-2.862H3.333a.667.667 0 0 1 0-1.334h7.723L8.194 4.471a.667.667 0 1 1 .943-.942l4 4c.26.26.26.682 0 .942l-4 4a.667.667 0 0 1-.943 0Z"/></symbol><symbol fill="currentColor" viewBox="0 0 16 16" id="burger"><path d="M0 5h16v1H0V5ZM0 10h16v1H0v-1Z"/></symbol><symbol fill="currentColor" viewBox="0 0 16 16" id="check"><path d="M5.724 10.651 3.226 8.152A.718.718 0 1 0 2.21 9.168l3.01 3.01c.281.28.735.28 1.016 0l7.619-7.619a.718.718 0 0 0-1.016-1.015L5.724 10.65Z"/></symbol><symbol fill="currentColor" viewBox="0 0 16 16" id="chevron"><path fill-rule="evenodd" clip-rule="evenodd" d="M3.047 6.198a.675.675 0 0 1 .954 0l4.023 4.022 4.023-4.022a.675.675 0 0 1 .954.954l-4.5 4.5a.675.675 0 0 1-.954 0l-4.5-4.5a.675.675 0 0 1 0-.954Z"/></symbol><symbol fill="currentColor" viewBox="0 0 16 16" id="cross"><path d="M12.066 4.995a.75.75 0 1 0-1.06-1.061L8 6.939 4.995 3.934a.75.75 0 1 0-1.06 1.06L6.938 8l-3.005 3.005a.75.75 0 0 0 1.06 1.06L8 9.06l3.005 3.006a.75.75 0 0 0 1.06-1.06L9.062 8l3.004-3.005Z"/></symbol><symbol fill="currentColor" viewBox="0 0 16 16" id="telegram"><g clip-path="url(#ga)"><path fill-rule="evenodd" clip-rule="evenodd" d="M16 8A8 8 0 1 1 0 8a8 8 0 0 1 16 0ZM8.287 5.906c-.778.323-2.334.993-4.666 2.01-.378.15-.577.297-.595.441-.03.244.275.34.69.47l.175.056c.408.133.958.288 1.243.294.26.006.549-.101.868-.32 2.179-1.471 3.303-2.214 3.374-2.23.05-.012.12-.026.166.016.047.041.042.12.037.141-.03.129-1.226 1.241-1.846 1.817a18.84 18.84 0 0 0-.546.522c-.38.366-.664.64.016 1.088.326.216.588.394.848.571.285.194.569.387.937.629.093.061.183.124.27.186.331.237.63.449.997.416.214-.02.435-.221.547-.82.265-1.418.786-4.487.907-5.752a1.41 1.41 0 0 0-.014-.315.337.337 0 0 0-.114-.217.522.522 0 0 0-.31-.093c-.301.005-.762.166-2.984 1.09Z"/></g><defs><clipPath id="ga"><path d="M0 0h16v16H0z"/></clipPath></defs></symbol><symbol fill="currentColor" viewBox="0 0 16 16" id="vk"><g clip-path="url(#ha)"><path fill-rule="evenodd" clip-rule="evenodd" d="M15.633 3.965c.111-.364 0-.632-.53-.632h-1.75c-.445 0-.65.231-.762.487 0 0-.89 2.13-2.15 3.514-.408.402-.594.529-.816.529-.112 0-.279-.127-.279-.492V3.965c0-.437-.123-.632-.493-.632H6.1c-.278 0-.446.203-.446.395 0 .414.631.51.696 1.676v2.532c0 .555-.102.656-.325.656-.593 0-2.037-2.141-2.893-4.59-.166-.477-.334-.669-.782-.669H.6c-.5 0-.6.231-.6.487 0 .454.593 2.713 2.763 5.7 1.447 2.04 3.484 3.146 5.339 3.146 1.113 0 1.25-.245 1.25-.668v-1.542c0-.492.105-.59.458-.59.26 0 .705.128 1.743 1.112 1.187 1.166 1.382 1.688 2.05 1.688h1.75c.5 0 .751-.245.607-.73-.159-.483-.725-1.184-1.477-2.015-.408-.473-1.02-.983-1.206-1.239-.259-.327-.185-.473 0-.764 0 0 2.134-2.951 2.356-3.953Z"/></g><defs><clipPath id="ha"><path d="M0 0h16v16H0z"/></clipPath></defs></symbol><symbol fill="currentColor" viewBox="0 0 16 16" id="whatsapp"><g clip-path="url(#ia)"><path fill-rule="evenodd" clip-rule="evenodd" d="M11.61 9.588c-.199-.1-1.173-.578-1.354-.645-.181-.066-.313-.098-.446.1-.132.198-.511.644-.627.776-.116.133-.231.149-.429.05-.198-.1-.837-.308-1.593-.983a5.963 5.963 0 0 1-1.102-1.373c-.116-.198-.013-.305.086-.404.09-.088.198-.231.298-.346.099-.116.132-.199.198-.332.066-.132.033-.247-.017-.346-.05-.1-.445-1.075-.61-1.472-.161-.386-.325-.333-.446-.34a8.575 8.575 0 0 0-.38-.006.726.726 0 0 0-.528.248c-.182.198-.693.677-.693 1.652 0 .975.709 1.917.808 2.05.1.132 1.397 2.133 3.384 2.991.474.204.842.326 1.13.417.474.151.906.13 1.248.078.38-.056 1.172-.479 1.337-.942.165-.462.165-.859.115-.942-.049-.082-.181-.132-.38-.231h.001Zm-3.615 4.935h-.002a6.58 6.58 0 0 1-3.355-.918l-.24-.143-2.495.655.666-2.432-.156-.25A6.574 6.574 0 0 1 1.405 7.93a6.6 6.6 0 0 1 6.593-6.59c1.76 0 3.415.687 4.659 1.932a6.549 6.549 0 0 1 1.928 4.662c-.002 3.634-2.958 6.59-6.59 6.59Zm5.608-12.198A7.877 7.877 0 0 0 7.995 0C3.625 0 .068 3.557.067 7.928a7.91 7.91 0 0 0 1.058 3.963L0 16l4.203-1.103a7.92 7.92 0 0 0 3.789.966h.003c4.37 0 7.927-3.557 7.928-7.929a7.88 7.88 0 0 0-2.32-5.609Z"/></g><defs><clipPath id="ia"><path d="M0 0h16v16H0z"/></clipPath></defs></symbol></svg>